<?xml version="1.0" encoding="UTF-8" standalone="no"?>
<svg
   height="128"
   width="128"
   version="1.1"
   id="svg10"
   sodipodi:docname="icon.svg"
   inkscape:version="1.4.2 (f4327f4, 2025-05-13)"
   inkscape:export-filename="icon.png"
   inkscape:export-xdpi="48"
   inkscape:export-ydpi="48"
   xmlns:inkscape="http://www.inkscape.org/namespaces/inkscape"
   xmlns:sodipodi="http://sodipodi.sourceforge.net/DTD/sodipodi-0.dtd"
   xmlns="http://www.w3.org/2000/svg"
   xmlns:svg="http://www.w3.org/2000/svg">
  <defs
     id="defs10" />
  <sodipodi:namedview
     id="namedview10"
     pagecolor="#ffffff"
     bordercolor="#000000"
     borderopacity="0.25"
     inkscape:showpageshadow="2"
     inkscape:pageopacity="0.0"
     inkscape:pagecheckerboard="0"
     inkscape:deskcolor="#d1d1d1"
     inkscape:zoom="5.2121504"
     inkscape:cx="50.26716"
     inkscape:cy="85.377429"
     inkscape:window-width="2558"
     inkscape:window-height="1408"
     inkscape:window-x="2072"
     inkscape:window-y="813"
     inkscape:window-maximized="0"
     inkscape:current-layer="g10" />
  <g
     stroke-width="9.92746"
     transform="matrix(.10073078 0 0 .10073078 12.425923 2.256365)"
     id="g10">
    <path
       d="m 0,0 c 0,0 -0.325,1.994 -0.515,1.976 l -36.182,-3.491 c -2.879,-0.278 -5.115,-2.574 -5.317,-5.459 l -0.994,-14.247 -27.992,-1.997 -1.904,12.912 c -0.424,2.872 -2.932,5.037 -5.835,5.037 h -38.188 c -2.902,0 -5.41,-2.165 -5.834,-5.037 l -1.905,-12.912 -27.992,1.997 -0.994,14.247 c -0.202,2.886 -2.438,5.182 -5.317,5.46 l -36.2,3.49 c -0.187,0.018 -0.324,-1.978 -0.511,-1.978 l -0.049,-7.83 30.658,-4.944 1.004,-14.374 c 0.203,-2.91 2.551,-5.263 5.463,-5.472 l 38.551,-2.75 c 0.146,-0.01 0.29,-0.016 0.434,-0.016 2.897,0 5.401,2.166 5.825,5.038 l 1.959,13.286 h 28.005 l 1.959,-13.286 c 0.423,-2.871 2.93,-5.037 5.831,-5.037 0.142,0 0.284,0.005 0.423,0.015 l 38.556,2.75 c 2.911,0.209 5.26,2.562 5.463,5.472 l 1.003,14.374 30.645,4.966 z"
       fill="#fff"
       transform="matrix(4.162611,0,0,-4.162611,919.24059,771.67186)"
       id="path3"
       style="display:inline;fill:#ffffff" />
    <path
       d="m 0,0 v -47.514 -6.035 -5.492 c 0.108,-0.001 0.216,-0.005 0.323,-0.015 l 36.196,-3.49 c 1.896,-0.183 3.382,-1.709 3.514,-3.609 l 1.116,-15.978 31.574,-2.253 2.175,14.747 c 0.282,1.912 1.922,3.329 3.856,3.329 h 38.188 c 1.933,0 3.573,-1.417 3.855,-3.329 l 2.175,-14.747 31.575,2.253 1.115,15.978 c 0.133,1.9 1.618,3.425 3.514,3.609 l 36.182,3.49 c 0.107,0.01 0.214,0.014 0.322,0.015 v 4.711 l 0.015,0.005 V 0 c 5.09692,6.4164715 9.92323,13.494208 13.621,19.449 -5.651,9.62 -12.575,18.217 -19.976,26.182 -6.864,-3.455 -13.531,-7.369 -19.828,-11.534 -3.151,3.132 -6.7,5.694 -10.186,8.372 -3.425,2.751 -7.285,4.768 -10.946,7.118 1.09,8.117 1.629,16.108 1.846,24.448 -9.446,4.754 -19.519,7.906 -29.708,10.17 -4.068,-6.837 -7.788,-14.241 -11.028,-21.479 -3.842,0.642 -7.702,0.88 -11.567,0.926 v 0.006 c -0.027,0 -0.052,-0.006 -0.075,-0.006 -0.024,0 -0.049,0.006 -0.073,0.006 V 63.652 C 93.903,63.606 90.046,63.368 86.203,62.726 82.965,69.964 79.247,77.368 75.173,84.205 64.989,81.941 54.915,78.789 45.47,74.035 45.686,65.695 46.225,57.704 47.318,49.587 43.65,47.237 39.795,45.22 36.369,42.469 32.888,39.791 29.333,37.229 26.181,34.097 19.884,38.262 13.219,42.176 6.353,45.631 -1.048,37.666 -7.968,29.069 -13.621,19.449 -9.1783421,12.475308 -4.4130298,5.4661124 0,0 Z"
       fill="#478cbf"
       id="path4"
       transform="matrix(4.162611,0,0,-4.162611,104.69892,525.90697)"
       style="display:inline;fill:#ff5000;fill-opacity:1" />
    <path
       d="m 0,0 -1.121,-16.063 c -0.135,-1.936 -1.675,-3.477 -3.611,-3.616 l -38.555,-2.751 c -0.094,-0.007 -0.188,-0.01 -0.281,-0.01 -1.916,0 -3.569,1.406 -3.852,3.33 l -2.211,14.994 H -81.09 l -2.211,-14.994 c -0.297,-2.018 -2.101,-3.469 -4.133,-3.32 l -38.555,2.751 c -1.936,0.139 -3.476,1.68 -3.611,3.616 L -130.721,0 -163.268,3.138 c 0.015,-3.498 0.06,-7.33 0.06,-8.093 0,-34.374 43.605,-50.896 97.781,-51.086 h 0.066 0.067 c 54.176,0.19 97.766,16.712 97.766,51.086 0,0.777 0.047,4.593 0.063,8.093 z"
       fill="#478cbf"
       id="path5"
       style="display:inline;fill:#ff5000;fill-opacity:1"
       transform="matrix(4.162611,0,0,-4.162611,784.07144,817.24284)" />
    <path
       d="m 0,0 c 0,-12.052 -9.765,-21.815 -21.813,-21.815 -12.042,0 -21.81,9.763 -21.81,21.815 0,12.044 9.768,21.802 21.81,21.802 C -9.765,21.802 0,12.044 0,0"
       fill="#ffffff"
       transform="matrix(4.162611,0,0,-4.162611,389.21484,625.67104)"
       id="path6"
       style="display:inline" />
    <path
       d="m 374.88405,647.51144 c 0,33.27592 -26.96956,60.24547 -60.27045,60.24547 -33.28424,0 -60.27044,-26.96955 -60.27044,-60.24547 0,-33.27591 26.9862,-60.27044 60.27044,-60.27044 33.30089,0 60.27045,26.99453 60.27045,60.27044"
       fill="#414042"
       id="path7"
       style="display:inline;stroke-width:41.3242" />
    <path
       d="m 0,0 c -3.878,0 -7.021,2.858 -7.021,6.381 v 20.081 c 0,3.52 3.143,6.381 7.021,6.381 3.878,0 7.028,-2.861 7.028,-6.381 V 6.381 C 7.028,2.858 3.878,0 0,0"
       fill="#ffffff"
       transform="matrix(4.162611,0,0,-4.162611,511.99336,724.73954)"
       id="path8"
       style="display:inline" />
    <path
       d="m 0,0 c 0,-12.052 9.765,-21.815 21.815,-21.815 12.041,0 21.808,9.763 21.808,21.815 0,12.044 -9.767,21.802 -21.808,21.802 C 9.765,21.802 0,12.044 0,0"
       fill="#ffffff"
       transform="matrix(4.162611,0,0,-4.162611,634.78706,625.67104)"
       id="path9"
       inkscape:label="path9"
       style="display:inline" />
    <path
       d="m 683.78218,645.81802 c 0,33.27591 26.96123,60.24547 60.23714,60.24547 33.30921,0 60.27045,-26.96956 60.27045,-60.24547 0,-33.27591 -26.96124,-60.27044 -60.27045,-60.27044 -33.27591,0 -60.23714,26.99453 -60.23714,60.27044"
       fill="#414042"
       id="path10"
       style="display:inline;stroke-width:41.3242" />
    <circle
       style="display:inline;fill:#234664;stroke-width:79.6016;fill-opacity:1"
       id="path11"
       cx="859.46002"
       cy="960.41779"
       r="208.4765" />
    <path
       d="m 908.7817,1036.787 -59.91217,-59.91194 v -82.69568 h 25.31496 v 72.14776 l 52.31767,52.31756 z M 848.86953,856.20687 v -37.97251 h 25.31496 v 37.97251 z m 118.13667,118.1367 v -25.31501 h 37.9726 v 25.31501 z M 848.86953,1105.1372 v -37.9722 h 25.31496 v 37.9722 z M 718.07535,974.34357 v -25.31501 h 37.97248 v 25.31501 z m 143.5656,156.10863 q -34.90941,0 -65.6081,-13.2904 -30.70285,-13.2903 -53.69731,-36.2848 -22.99446,-22.9941 -36.28489,-53.7265 -13.29034,-30.7322 -13.29034,-65.6754 0,-34.94315 13.29034,-65.67557 13.29043,-30.73241 36.28489,-53.51591 22.99446,-22.7835 53.72689,-36.07389 30.73243,-13.29037 65.67551,-13.29037 34.94317,0 65.67559,13.29037 30.73243,13.29039 53.51592,36.07389 22.78345,22.7835 36.07395,53.58343 13.2904,30.79991 13.2904,65.70509 0,34.90946 -13.2904,65.60786 -13.2905,30.7029 -36.07395,53.621 -22.78349,22.9144 -53.5834,36.2849 -30.79993,13.3663 -65.7051,13.3663 z m 0.0969,-25.315 q 59.70128,0 101.47104,-41.9804 41.76981,-41.9805 41.76981,-101.6817 0,-59.70122 -41.68964,-101.47098 -41.68962,-41.76976 -101.7621,-41.76976 -59.49031,0 -101.47105,41.6896 -41.98065,41.68958 -41.98065,101.7621 0,59.49024 41.98065,101.47074 41.98074,41.9804 101.68194,41.9804 z m -0.21089,-143.45114 z"
       id="path1"
       style="display:inline;fill:#ffffff;stroke-width:4.18856" />
  </g>
</svg>
